<svg viewBox="0 0 2672 2672" fill="none" xmlns="http://www.w3.org/2000/svg">
    <path d="M2427.24 0H244.763C109.584 0 0 110.64 0 247.121V2424.88C0 2561.36 109.584 2672 244.763 2672H2427.24C2562.42 2672 2672 2561.36 2672 2424.88V247.121C2672 110.64 2562.42 0 2427.24 0Z" fill="#359B47"/>
    <g clip-path="url(#clip0_4_19)">
        <path d="M1091.05 635.988C1091.05 759.694 990.749 859.976 867.024 859.976C743.299 859.976 643 759.694 643 635.988C643 512.283 743.299 412 867.024 412C990.749 412 1091.05 512.283 1091.05 635.988Z" fill="#CA2128"/>
        <path d="M1514.16 433.814H1180.66C1160 433.814 1143.26 450.557 1143.26 471.211V800.766C1143.26 821.419 1160 838.162 1180.66 838.162H1514.16C1534.82 838.162 1551.56 821.419 1551.56 800.766V471.211C1551.56 450.557 1534.82 433.814 1514.16 433.814Z" fill="white"/>
        <path d="M1992.6 433.814H1663.77C1643.11 433.814 1626.37 450.557 1626.37 471.211V800.766C1626.37 821.419 1643.11 838.162 1663.77 838.162H1992.6C2013.25 838.162 2030 821.419 2030 800.766V471.211C2030 450.557 2013.25 433.814 1992.6 433.814Z" fill="white"/>
        <path d="M1031.05 903.605H702.22C681.564 903.605 664.818 920.348 664.818 941.002V1270.56C664.818 1291.21 681.564 1307.95 702.22 1307.95H1031.05C1051.71 1307.95 1068.45 1291.21 1068.45 1270.56V941.002C1068.45 920.348 1051.71 903.605 1031.05 903.605Z" fill="white"/>
        <path d="M1514.16 903.605H1180.66C1160 903.605 1143.26 920.348 1143.26 941.002V1270.56C1143.26 1291.21 1160 1307.95 1180.66 1307.95H1514.16C1534.82 1307.95 1551.56 1291.21 1551.56 1270.56V941.002C1551.56 920.348 1534.82 903.605 1514.16 903.605Z" fill="white"/>
        <path d="M1031.05 1381.97H702.22C681.564 1381.97 664.818 1398.71 664.818 1419.36V1752.81C664.818 1773.47 681.564 1790.21 702.22 1790.21H1031.05C1051.71 1790.21 1068.45 1773.47 1068.45 1752.81V1419.36C1068.45 1398.71 1051.71 1381.97 1031.05 1381.97Z" fill="white"/>
        <path d="M1514.16 1381.97H1180.66C1160 1381.97 1143.26 1398.71 1143.26 1419.36V1752.81C1143.26 1773.47 1160 1790.21 1180.66 1790.21H1514.16C1534.82 1790.21 1551.56 1773.47 1551.56 1752.81V1419.36C1551.56 1398.71 1534.82 1381.97 1514.16 1381.97Z" fill="white"/>
        <path d="M1992.6 1381.97H1663.77C1643.11 1381.97 1626.37 1398.71 1626.37 1419.36V1752.81C1626.37 1773.47 1643.11 1790.21 1663.77 1790.21H1992.6C2013.25 1790.21 2030 1773.47 2030 1752.81V1419.36C2030 1398.71 2013.25 1381.97 1992.6 1381.97Z" fill="white"/>
        <path d="M1031.05 1851.76H702.22C681.564 1851.76 664.818 1868.5 664.818 1889.15V2222.6C664.818 2243.26 681.564 2260 702.22 2260H1031.05C1051.71 2260 1068.45 2243.26 1068.45 2222.6V1889.15C1068.45 1868.5 1051.71 1851.76 1031.05 1851.76Z" fill="white"/>
        <path d="M1514.16 1851.76H1180.66C1160 1851.76 1143.26 1868.5 1143.26 1889.15V2222.6C1143.26 2243.26 1160 2260 1180.66 2260H1514.16C1534.82 2260 1551.56 2243.26 1551.56 2222.6V1889.15C1551.56 1868.5 1534.82 1851.76 1514.16 1851.76Z" fill="white"/>
    </g>
    <defs>
        <clipPath id="clip0_4_19">
            <rect width="1387" height="1848" fill="white" transform="translate(643 412)"/>
        </clipPath>
    </defs>
</svg>